<mxfile host="app.diagrams.net" modified="2023-06-13T10:17:33.988Z" agent="Mozilla/5.0 (Windows NT 10.0; Win64; x64) AppleWebKit/537.36 (KHTML, like Gecko) Chrome/114.0.0.0 Safari/537.36" etag="XQVhLPJE90VRQ2fSCqXl" version="21.3.8" type="github">
  <diagram name="Page-1" id="2YBvvXClWsGukQMizWep">
    <mxGraphModel dx="794" dy="740" grid="0" gridSize="10" guides="1" tooltips="1" connect="1" arrows="1" fold="1" page="1" pageScale="1" pageWidth="850" pageHeight="1100" math="0" shadow="0">
      <root>
        <mxCell id="0" />
        <mxCell id="1" parent="0" />
        <mxCell id="V-4Zc7tRNZc4K7kBfhPR-19" style="edgeStyle=elbowEdgeStyle;rounded=0;orthogonalLoop=1;jettySize=auto;html=1;elbow=vertical;curved=0;" edge="1" parent="1" source="V-4Zc7tRNZc4K7kBfhPR-1" target="V-4Zc7tRNZc4K7kBfhPR-16">
          <mxGeometry relative="1" as="geometry">
            <Array as="points">
              <mxPoint x="100" y="440" />
            </Array>
          </mxGeometry>
        </mxCell>
        <mxCell id="V-4Zc7tRNZc4K7kBfhPR-20" value="Modificar IPs" style="edgeLabel;html=1;align=center;verticalAlign=middle;resizable=0;points=[];" vertex="1" connectable="0" parent="V-4Zc7tRNZc4K7kBfhPR-19">
          <mxGeometry x="0.2667" y="1" relative="1" as="geometry">
            <mxPoint x="-11" y="-9" as="offset" />
          </mxGeometry>
        </mxCell>
        <mxCell id="V-4Zc7tRNZc4K7kBfhPR-1" value="" style="shape=umlLifeline;perimeter=lifelinePerimeter;whiteSpace=wrap;html=1;container=1;dropTarget=0;collapsible=0;recursiveResize=0;outlineConnect=0;portConstraint=eastwest;newEdgeStyle={&quot;edgeStyle&quot;:&quot;elbowEdgeStyle&quot;,&quot;elbow&quot;:&quot;vertical&quot;,&quot;curved&quot;:0,&quot;rounded&quot;:0};participant=umlActor;" vertex="1" parent="1">
          <mxGeometry x="60" y="50" width="20" height="420" as="geometry" />
        </mxCell>
        <mxCell id="V-4Zc7tRNZc4K7kBfhPR-18" style="edgeStyle=elbowEdgeStyle;rounded=0;orthogonalLoop=1;jettySize=auto;html=1;elbow=vertical;curved=0;endArrow=block;endFill=0;movable=0;resizable=0;rotatable=0;deletable=0;editable=0;locked=1;connectable=0;" edge="1" parent="1" source="V-4Zc7tRNZc4K7kBfhPR-3" target="V-4Zc7tRNZc4K7kBfhPR-16">
          <mxGeometry relative="1" as="geometry">
            <Array as="points">
              <mxPoint x="250" y="370" />
            </Array>
          </mxGeometry>
        </mxCell>
        <mxCell id="V-4Zc7tRNZc4K7kBfhPR-25" style="edgeStyle=elbowEdgeStyle;rounded=0;orthogonalLoop=1;jettySize=auto;html=1;elbow=vertical;curved=0;" edge="1" parent="1" source="V-4Zc7tRNZc4K7kBfhPR-3" target="V-4Zc7tRNZc4K7kBfhPR-6">
          <mxGeometry relative="1" as="geometry">
            <Array as="points">
              <mxPoint x="470" y="550" />
            </Array>
          </mxGeometry>
        </mxCell>
        <mxCell id="V-4Zc7tRNZc4K7kBfhPR-28" value="update(IP)" style="edgeLabel;html=1;align=center;verticalAlign=middle;resizable=0;points=[];" vertex="1" connectable="0" parent="V-4Zc7tRNZc4K7kBfhPR-25">
          <mxGeometry x="-0.084" y="3" relative="1" as="geometry">
            <mxPoint as="offset" />
          </mxGeometry>
        </mxCell>
        <mxCell id="V-4Zc7tRNZc4K7kBfhPR-26" style="edgeStyle=elbowEdgeStyle;rounded=0;orthogonalLoop=1;jettySize=auto;html=1;elbow=vertical;curved=0;" edge="1" parent="1" source="V-4Zc7tRNZc4K7kBfhPR-3" target="V-4Zc7tRNZc4K7kBfhPR-4">
          <mxGeometry relative="1" as="geometry">
            <Array as="points">
              <mxPoint x="340" y="510" />
            </Array>
          </mxGeometry>
        </mxCell>
        <mxCell id="V-4Zc7tRNZc4K7kBfhPR-27" value="update(enable)" style="edgeLabel;html=1;align=center;verticalAlign=middle;resizable=0;points=[];" vertex="1" connectable="0" parent="V-4Zc7tRNZc4K7kBfhPR-26">
          <mxGeometry x="-0.6074" y="3" relative="1" as="geometry">
            <mxPoint x="39" y="-7" as="offset" />
          </mxGeometry>
        </mxCell>
        <mxCell id="V-4Zc7tRNZc4K7kBfhPR-3" value="" style="shape=umlLifeline;perimeter=lifelinePerimeter;whiteSpace=wrap;html=1;container=1;dropTarget=0;collapsible=0;recursiveResize=0;outlineConnect=0;portConstraint=eastwest;newEdgeStyle={&quot;edgeStyle&quot;:&quot;elbowEdgeStyle&quot;,&quot;elbow&quot;:&quot;vertical&quot;,&quot;curved&quot;:0,&quot;rounded&quot;:0};participant=umlControl;" vertex="1" parent="1">
          <mxGeometry x="270" y="50" width="40" height="520" as="geometry" />
        </mxCell>
        <mxCell id="V-4Zc7tRNZc4K7kBfhPR-4" value="" style="shape=umlLifeline;perimeter=lifelinePerimeter;whiteSpace=wrap;html=1;container=1;dropTarget=0;collapsible=0;recursiveResize=0;outlineConnect=0;portConstraint=eastwest;newEdgeStyle={&quot;edgeStyle&quot;:&quot;elbowEdgeStyle&quot;,&quot;elbow&quot;:&quot;vertical&quot;,&quot;curved&quot;:0,&quot;rounded&quot;:0};participant=umlEntity;" vertex="1" parent="1">
          <mxGeometry x="405" y="50" width="40" height="560" as="geometry" />
        </mxCell>
        <mxCell id="V-4Zc7tRNZc4K7kBfhPR-10" value="" style="html=1;points=[];perimeter=orthogonalPerimeter;outlineConnect=0;targetShapes=umlLifeline;portConstraint=eastwest;newEdgeStyle={&quot;edgeStyle&quot;:&quot;elbowEdgeStyle&quot;,&quot;elbow&quot;:&quot;vertical&quot;,&quot;curved&quot;:0,&quot;rounded&quot;:0};" vertex="1" parent="V-4Zc7tRNZc4K7kBfhPR-4">
          <mxGeometry x="15" y="80" width="10" height="80" as="geometry" />
        </mxCell>
        <mxCell id="V-4Zc7tRNZc4K7kBfhPR-5" value="Configurar Maqueta" style="text;html=1;align=center;verticalAlign=middle;resizable=0;points=[];autosize=1;strokeColor=none;fillColor=none;" vertex="1" parent="1">
          <mxGeometry x="225" y="90" width="130" height="30" as="geometry" />
        </mxCell>
        <mxCell id="V-4Zc7tRNZc4K7kBfhPR-6" value="" style="shape=umlLifeline;perimeter=lifelinePerimeter;whiteSpace=wrap;html=1;container=1;dropTarget=0;collapsible=0;recursiveResize=0;outlineConnect=0;portConstraint=eastwest;newEdgeStyle={&quot;edgeStyle&quot;:&quot;elbowEdgeStyle&quot;,&quot;elbow&quot;:&quot;vertical&quot;,&quot;curved&quot;:0,&quot;rounded&quot;:0};participant=umlEntity;" vertex="1" parent="1">
          <mxGeometry x="520" y="50" width="40" height="570" as="geometry" />
        </mxCell>
        <mxCell id="V-4Zc7tRNZc4K7kBfhPR-13" value="" style="html=1;points=[];perimeter=orthogonalPerimeter;outlineConnect=0;targetShapes=umlLifeline;portConstraint=eastwest;newEdgeStyle={&quot;edgeStyle&quot;:&quot;elbowEdgeStyle&quot;,&quot;elbow&quot;:&quot;vertical&quot;,&quot;curved&quot;:0,&quot;rounded&quot;:0};" vertex="1" parent="V-4Zc7tRNZc4K7kBfhPR-6">
          <mxGeometry x="15" y="190" width="10" height="80" as="geometry" />
        </mxCell>
        <mxCell id="V-4Zc7tRNZc4K7kBfhPR-7" value="ElementInteractuar" style="text;html=1;align=center;verticalAlign=middle;resizable=0;points=[];autosize=1;strokeColor=none;fillColor=none;" vertex="1" parent="1">
          <mxGeometry x="365" y="90" width="120" height="30" as="geometry" />
        </mxCell>
        <mxCell id="V-4Zc7tRNZc4K7kBfhPR-8" value="ElementCiutat" style="text;html=1;align=center;verticalAlign=middle;resizable=0;points=[];autosize=1;strokeColor=none;fillColor=none;" vertex="1" parent="1">
          <mxGeometry x="490" y="90" width="100" height="30" as="geometry" />
        </mxCell>
        <mxCell id="V-4Zc7tRNZc4K7kBfhPR-9" value="UsuariAutoritzar" style="text;html=1;align=center;verticalAlign=middle;resizable=0;points=[];autosize=1;strokeColor=none;fillColor=none;" vertex="1" parent="1">
          <mxGeometry x="15" y="90" width="110" height="30" as="geometry" />
        </mxCell>
        <mxCell id="V-4Zc7tRNZc4K7kBfhPR-11" value="getElements()" style="html=1;verticalAlign=bottom;endArrow=block;edgeStyle=elbowEdgeStyle;elbow=vertical;curved=0;rounded=0;" edge="1" target="V-4Zc7tRNZc4K7kBfhPR-10" parent="1" source="V-4Zc7tRNZc4K7kBfhPR-3">
          <mxGeometry relative="1" as="geometry">
            <mxPoint x="350" y="130" as="sourcePoint" />
            <Array as="points">
              <mxPoint x="330" y="130" />
            </Array>
          </mxGeometry>
        </mxCell>
        <mxCell id="V-4Zc7tRNZc4K7kBfhPR-14" value="getElements()" style="html=1;verticalAlign=bottom;endArrow=block;edgeStyle=elbowEdgeStyle;elbow=vertical;curved=0;rounded=0;" edge="1" target="V-4Zc7tRNZc4K7kBfhPR-13" parent="1" source="V-4Zc7tRNZc4K7kBfhPR-3">
          <mxGeometry relative="1" as="geometry">
            <mxPoint x="465" y="240" as="sourcePoint" />
            <Array as="points">
              <mxPoint x="380" y="240" />
            </Array>
          </mxGeometry>
        </mxCell>
        <mxCell id="V-4Zc7tRNZc4K7kBfhPR-12" value="[ElementInteractuar]" style="html=1;verticalAlign=bottom;endArrow=open;dashed=1;endSize=8;edgeStyle=elbowEdgeStyle;elbow=vertical;curved=0;rounded=0;" edge="1" source="V-4Zc7tRNZc4K7kBfhPR-10" parent="1" target="V-4Zc7tRNZc4K7kBfhPR-3">
          <mxGeometry relative="1" as="geometry">
            <mxPoint x="350" y="205" as="targetPoint" />
            <Array as="points">
              <mxPoint x="330" y="210" />
            </Array>
          </mxGeometry>
        </mxCell>
        <mxCell id="V-4Zc7tRNZc4K7kBfhPR-15" value="[ElementCiutat]" style="html=1;verticalAlign=bottom;endArrow=open;dashed=1;endSize=8;edgeStyle=elbowEdgeStyle;elbow=vertical;curved=0;rounded=0;" edge="1" source="V-4Zc7tRNZc4K7kBfhPR-13" parent="1" target="V-4Zc7tRNZc4K7kBfhPR-3">
          <mxGeometry relative="1" as="geometry">
            <mxPoint x="465" y="315" as="targetPoint" />
            <Array as="points">
              <mxPoint x="360" y="320" />
            </Array>
          </mxGeometry>
        </mxCell>
        <mxCell id="V-4Zc7tRNZc4K7kBfhPR-23" style="edgeStyle=elbowEdgeStyle;rounded=0;orthogonalLoop=1;jettySize=auto;html=1;elbow=vertical;curved=0;" edge="1" parent="1" source="V-4Zc7tRNZc4K7kBfhPR-16" target="V-4Zc7tRNZc4K7kBfhPR-3">
          <mxGeometry relative="1" as="geometry">
            <Array as="points">
              <mxPoint x="260" y="480" />
            </Array>
          </mxGeometry>
        </mxCell>
        <mxCell id="V-4Zc7tRNZc4K7kBfhPR-24" value="[IP, enable]" style="edgeLabel;html=1;align=center;verticalAlign=middle;resizable=0;points=[];" vertex="1" connectable="0" parent="V-4Zc7tRNZc4K7kBfhPR-23">
          <mxGeometry x="0.0348" y="1" relative="1" as="geometry">
            <mxPoint x="-4" y="-9" as="offset" />
          </mxGeometry>
        </mxCell>
        <mxCell id="V-4Zc7tRNZc4K7kBfhPR-16" value="" style="shape=umlLifeline;perimeter=lifelinePerimeter;whiteSpace=wrap;html=1;container=1;dropTarget=0;collapsible=0;recursiveResize=0;outlineConnect=0;portConstraint=eastwest;newEdgeStyle={&quot;edgeStyle&quot;:&quot;elbowEdgeStyle&quot;,&quot;elbow&quot;:&quot;vertical&quot;,&quot;curved&quot;:0,&quot;rounded&quot;:0};participant=umlBoundary;" vertex="1" parent="1">
          <mxGeometry x="150" y="330" width="50" height="190" as="geometry" />
        </mxCell>
        <mxCell id="V-4Zc7tRNZc4K7kBfhPR-17" value="Elements" style="text;html=1;align=center;verticalAlign=middle;resizable=0;points=[];autosize=1;strokeColor=none;fillColor=none;" vertex="1" parent="1">
          <mxGeometry x="140" y="368" width="70" height="30" as="geometry" />
        </mxCell>
        <mxCell id="V-4Zc7tRNZc4K7kBfhPR-29" value="" style="shape=umlDestroy;html=1;" vertex="1" parent="1">
          <mxGeometry x="160" y="500" width="30" height="30" as="geometry" />
        </mxCell>
      </root>
    </mxGraphModel>
  </diagram>
</mxfile>
